<?xml version="1.0" standalone="no"?>
<!DOCTYPE svg PUBLIC "-//W3C//DTD SVG 20010904//EN"
 "http://www.w3.org/TR/2001/REC-SVG-20010904/DTD/svg10.dtd">
<svg version="1.0" xmlns="http://www.w3.org/2000/svg"
 width="32.000000pt" height="32.000000pt" viewBox="0 0 32.000000 32.000000"
 preserveAspectRatio="xMidYMid meet">

<g transform="translate(0.000000,32.000000) scale(0.100000,-0.100000)"
fill="#000000" stroke="none">
<path d="M20 300 c-18 -18 -20 -33 -20 -140 0 -107 2 -122 20 -140 18 -18 33
-20 140 -20 161 0 160 -1 160 160 0 161 1 160 -160 160 -107 0 -122 -2 -140
-20z m190 -35 c0 -11 -11 -15 -36 -15 -66 0 -74 -11 -74 -103 l0 -82 52 2 c29
1 55 7 59 15 5 7 9 55 9 106 0 75 3 92 15 92 12 0 15 -18 15 -98 0 -134 -6
-142 -111 -142 l-79 0 0 85 c0 86 15 137 42 148 7 3 34 6 61 6 35 1 47 -3 47
-14z"/>
</g>
</svg>
